<svg xmlns="http://www.w3.org/2000/svg" width="512" height="512" fill="none"><path fill="#333" d="M482.2 376c19-35.8 29.8-76.6 29.8-120s-10.8-84.2-29.8-120H29.8A255 255 0 0 0 0 256c0 43.4 10.8 84.2 29.8 120z"/><path fill="#D80027" d="M496.5 344a256.1 256.1 0 0 1-481 0zm0-176h-481a256.1 256.1 0 0 1 481 0"/><path fill="#fff" fill-rule="evenodd" d="m85 227.5 28.6-28.6 28.6 28.6-28.6 28.5 28.6 28.5-28.6 28.6-28.5-28.6-28.6 28.6L28 284.5 56.5 256 28 227.5l28.5-28.6zm171 0 28.5-28.6 28.6 28.6-28.6 28.5 28.6 28.5-28.6 28.6-28.5-28.6-28.5 28.6-28.6-28.6 28.6-28.5-28.6-28.5 28.6-28.6zm171 0 28.5-28.6 28.5 28.6-28.5 28.5 28.5 28.5-28.5 28.6-28.6-28.6-28.5 28.6-28.6-28.6 28.6-28.5-28.6-28.5 28.6-28.6 28.5 28.6Z" clip-rule="evenodd"/></svg>