<svg xmlns="http://www.w3.org/2000/svg" width="512" height="512" fill="none"><g clip-path="url(#a)"><circle cx="256" cy="256" r="256" fill="#EEE"/><path fill="#333" fill-rule="evenodd" d="M477.8 384A255 255 0 0 0 512 256H384V128h93.8A257 257 0 0 0 384 34.2V128H256V0c-46.6 0-90.3 12.5-128 34.2V128H34.2A255 255 0 0 0 0 256h128v128H34.2a257 257 0 0 0 93.8 93.8V384h128v128c46.6 0 90.3-12.5 128-34.2V384zm-93.8 0H256V256h128zM128 256V128h128v128z" clip-rule="evenodd"/></g><defs><clipPath id="a"><path fill="#fff" d="M0 0h512v512H0z"/></clipPath></defs></svg>