<svg xmlns="http://www.w3.org/2000/svg" width="512" height="512" fill="none"><g fill-rule="evenodd" clip-path="url(#a)" clip-rule="evenodd"><g clip-path="url(#b)"><path fill="#9C27B0" d="M454.4 417.8A256 256 0 0 1 256 512c-80 0-151.5-36.7-198.4-94.2L256 393z"/><path fill="#0052B4" d="M63.7 425c-22-25-39.2-54.4-50.2-86.7L256 308l242.5 30.3a256 256 0 0 1-50.2 86.7z"/><path fill="#6DA544" d="M497.9 340a256 256 0 0 0 14.1-85l-256-32L0 255a261 261 0 0 0 14.1 85z"/><path fill="#FFDA44" d="M496.5 168a254 254 0 0 1 15.5 87H0c.1-30.5 5.6-59.8 15.5-87L256 138z"/><path fill="#FF9811" d="M497.2 170H14.8a256 256 0 0 1 59.4-94.3L256 53l181.8 22.7a256 256 0 0 1 59.4 94.3"/><path fill="#D80027" d="M446.5 85h-381A255 255 0 0 1 256 0c75.7 0 143.6 32.8 190.5 85"/></g><path fill="#333" d="M173.6 13.6 416 256 173.6 498.4a255 255 0 0 1-60.8-30.2L272 256 112.8 43.8a255 255 0 0 1 60.8-30.2"/><path fill="#85693D" d="M64.5 86a256 256 0 0 1 55-46.6L336 256 119.4 472.6a261 261 0 0 1-54.9-46.7L192 256z"/><path fill="#338AF3" d="M32.5 131A257 257 0 0 1 75 75l181 181L75 437a257 257 0 0 1-42.5-56L112 256z"/><path fill="#F5A9B8" d="M9.2 187.7q10.3-36.8 30.2-68.3L176 256 39.4 392.6a255 255 0 0 1-30.2-68.3L32 256z"/><path fill="#EEE" d="M13.6 338.4a256 256 0 0 1 0-164.8L96 256z"/></g><defs><clipPath id="a"><path fill="#fff" d="M0 0h512v512H0z"/></clipPath><clipPath id="b"><path fill="#fff" d="M0 0h512v512H0z"/></clipPath></defs></svg>