<svg xmlns="http://www.w3.org/2000/svg" width="512" height="512" fill="none"><g fill-rule="evenodd" clip-path="url(#a)" clip-rule="evenodd"><path fill="var(--flag-palette-light-blue, #338af3)" d="M464.8 404.1A256 256 0 0 1 256 512 256 256 0 0 1 47.2 404.1L256 378z"/><path fill="var(--flag-palette-pink, #f5a9b8)" d="M5.2 307.4 256 276l250.8 31.4A254 254 0 0 1 460.5 410h-409A255 255 0 0 1 5.2 307.4"/><path fill="#EEE" d="M506.7 308a257 257 0 0 0-.1-104.7L256 172 5.4 203.3A257 257 0 0 0 5.3 308z"/><path fill="var(--flag-palette-pink, #f5a9b8)" d="M455 94.9A255 255 0 0 1 506.6 204H5.3A255 255 0 0 1 57 94.9L256 70z"/><path fill="var(--flag-palette-light-blue, #338af3)" d="M460.5 102h-409C98.2 40 172.5 0 256 0s157.8 40 204.5 102"/></g><defs><clipPath id="a"><path fill="#fff" d="M0 0h512v512H0z"/></clipPath></defs></svg>