<svg xmlns="http://www.w3.org/2000/svg" width="512" height="512" fill="none"><path fill="#EEE" d="M477.8 384A255 255 0 0 0 512 256c0-46.6-12.5-90.3-34.2-128H34.2A255 255 0 0 0 0 256c0 46.6 12.5 90.3 34.2 128z"/><path fill="#338AF3" d="M256 512A256 256 0 0 1 25.6 368h460.6A256 256 0 0 1 256 512m0-512A256 256 0 0 0 25.7 144h460.6A256 256 0 0 0 256 0"/><path fill="#FFC635" d="M256 178a78 78 0 1 0 0 156 78 78 0 0 0 0-156m0 122.5a44.5 44.5 0 1 1 0-89 44.5 44.5 0 0 1 0 89"/><path fill="#0052B4" d="M294.6 267.1 256 256l-38.6 11.1-12.8 22.3h102.8z"/><path fill="#338AF3" d="M256 200.3 230.3 245l25.7 11 25.7-11.1z"/><path fill="#6DA544" d="M217.4 267.1h77.2L281.7 245h-51.4z"/></svg>