<svg xmlns="http://www.w3.org/2000/svg" width="512" height="512" fill="none"><g clip-path="url(#a)"><path fill="#FFDA44" d="M482.2 376c19-35.8 29.8-76.6 29.8-120s-10.8-84.2-29.8-120H29.8A255 255 0 0 0 0 256c0 43.4 10.8 84.2 29.8 120z"/><path fill="#496E2D" d="M496.5 344a256.1 256.1 0 0 1-481 0z"/><path fill="#D80027" d="M496.5 168h-481a256.1 256.1 0 0 1 481 0"/><path fill="#333" d="m128 167 22.1 68h71.5l-57.8 42 22 68-57.8-42-57.9 42 22.1-68-57.8-42h71.5z"/><path fill="#EEE" d="M437 75a256 256 0 0 1-180.9 437h-.2a255 255 0 0 1-172.7-67.2L192 336v-16l32-32h64v-64z"/><path fill="#0052B4" d="M459.4 100.6A255 255 0 0 1 504 192H368zm0 310.8A255 255 0 0 0 504 320H368zm-48 48L320 368v136a255 255 0 0 0 91.4-44.6M192 504V368l-91.4 91.4A255 255 0 0 0 192 504"/><path fill="#D80027" d="M510 288a258 258 0 0 0 0-64H288l-64 64v222q15.6 2 31.9 2h.2q16.3 0 31.9-2V288z"/><path fill="#D80027" d="M452.3 420.3 352 320h-32l117 117q8.1-8 15.3-16.7m-360.6 32L192 352v-32L75 437q8 8.1 16.7 15.3"/></g><defs><clipPath id="a"><path fill="#fff" d="M0 0h512v512H0z"/></clipPath></defs></svg>