<svg xmlns="http://www.w3.org/2000/svg" width="512" height="512" fill="none"><g clip-path="url(#a)"><mask id="b" width="512" height="512" x="0" y="0" maskUnits="userSpaceOnUse" style="mask-type:alpha"><path fill="#F0F" d="M437 75V0H0v437h75l277-85z"/></mask><g mask="url(#b)"><circle cx="256" cy="256" r="256" fill="var(--flag-palette-bright-red, #d80027)"/></g><path fill="#EEE" d="M200.4 121.7c-5.8 24.2-16.1 19.6-21.2 40.7a55.7 55.7 0 0 1 26-108.3c-10.1 42.2.4 46-4.8 67.6m-77.5 17.9c21.2 13 13.6 21.4 32.1 32.8a55.7 55.7 0 0 1-94.9-58.2c37 22.7 43.8 13.8 62.8 25.4m-6.9 79.3c19-16.2 24.6-6.4 41-20.4a55.7 55.7 0 0 1-84.6 72.2c33-28.2 26.6-37.4 43.6-51.8m73.3 31.1c-9.6-23 1.5-25.4-6.8-45.4a55.7 55.7 0 0 1 42.6 102.8c-16.6-40-27.3-36.9-35.8-57.4m52.2-60.1c-24.9 2-23.7-9.3-45.3-7.6a55.7 55.7 0 0 1 111-8.7c-43.3 3.4-43.6 14.5-65.7 16.3"/><path fill="#EEE" d="M437 75a256 256 0 0 1-180.9 437h-.2a255 255 0 0 1-172.7-67.2L192 336v-16l32-32h64v-64z"/><path fill="var(--flag-palette-blue, #0052b4)" d="M459.4 100.6A255 255 0 0 1 504 192H368zm0 310.8A255 255 0 0 0 504 320H368zm-48 48L320 368v136a255 255 0 0 0 91.4-44.6M192 504V368l-91.4 91.4A255 255 0 0 0 192 504"/><path fill="var(--flag-palette-bright-red, #d80027)" d="M510 288a258 258 0 0 0 0-64H288l-64 64v222q15.6 2 31.9 2h.2q16.3 0 31.9-2V288z"/><path fill="var(--flag-palette-bright-red, #d80027)" d="M452.3 420.3 352 320h-32l117 117q8.1-8 15.3-16.7m-360.6 32L192 352v-32L75 437q8 8.1 16.7 15.3"/></g><defs><clipPath id="a"><path fill="#fff" d="M0 0h512v512H0z"/></clipPath></defs></svg>