<svg xmlns="http://www.w3.org/2000/svg" width="512" height="512" fill="none"><g clip-path="url(#a)"><mask id="b" width="512" height="512" x="0" y="0" maskUnits="userSpaceOnUse" style="mask-type:alpha"><path fill="#F0F" d="M437 75V0H0v437h75l277-85z"/></mask><g mask="url(#b)"><path fill="#A2001D" d="M482.2 376c19-35.8 29.8-76.6 29.8-120s-10.8-84.2-29.8-120H29.8A255 255 0 0 0 0 256c0 43.4 10.8 84.2 29.8 120z"/><path fill="#496E2D" d="M496.5 344a256.1 256.1 0 0 1-481 0z"/><path fill="#333" d="M496.5 168h-481a256.1 256.1 0 0 1 481 0"/><path fill="#EEE" fill-rule="evenodd" d="M493.4 160q6.3 15.5 10.5 32H8.1a254 254 0 0 1 10.5-32zm0 192q6.3-15.5 10.5-32H8.1a254 254 0 0 0 10.5 32z" clip-rule="evenodd"/></g><path fill="#EEE" d="m223.7 118.3-30.3-14L144 216.2 94.6 104.3l-30.3 14L125.6 256 64.3 393.7l30.3 14L144 295.8l49.4 111.9 30.3-14L162.4 256z"/><path fill="#EEE" d="M164.6 131.5a236 236 0 0 0-20.6-20.2s-8.9 7.4-20.6 20.2v249a236 236 0 0 0 20.6 20.2s8.9-7.4 20.6-20.2z"/><path fill="#A2001D" d="M88.3 179.2v153.6a269 269 0 0 0 39 51.9V127.3c-11.4 12-26.6 30-39 52m111.4-.1a269 269 0 0 0-39-51.9v257.4c11.4-12 26.5-30 39-52z"/><path fill="#333" d="M199.7 179.2v153.6a158 158 0 0 0 22.2-76.8c0-28.2-9.7-54.5-22.2-76.8m-111.4 0v153.6A158 158 0 0 1 66.1 256c0-28.2 9.7-54.5 22.2-76.8"/><path fill="#EEE" d="M437 75a256 256 0 0 1-180.9 437h-.2a255 255 0 0 1-172.7-67.2L192 336v-16l32-32h64v-64z"/><path fill="#0052B4" d="M459.4 100.6A255 255 0 0 1 504 192H368zm0 310.8A255 255 0 0 0 504 320H368zm-48 48L320 368v136a255 255 0 0 0 91.4-44.6M192 504V368l-91.4 91.4A255 255 0 0 0 192 504"/><path fill="#D80027" d="M510 288a258 258 0 0 0 0-64H288l-64 64v222q15.6 2 31.9 2h.2q16.3 0 31.9-2V288z"/><path fill="#D80027" d="M452.3 420.3 352 320h-32l117 117q8.1-8 15.3-16.7m-360.6 32L192 352v-32L75 437q8 8.1 16.7 15.3"/></g><defs><clipPath id="a"><path fill="#fff" d="M0 0h512v512H0z"/></clipPath></defs></svg>