<svg xmlns="http://www.w3.org/2000/svg" width="512" height="512" fill="none"><g clip-path="url(#a)"><mask id="b" width="513" height="512" x="-1" y="0" maskUnits="userSpaceOnUse" style="mask-type:alpha"><path fill="#F0F" d="M437 75V0H0v437h75l277-85z"/></mask><g mask="url(#b)"><path fill="#EEE" d="M256 512a256 256 0 0 0 256-255.5v-.5l-256-32L0 256a256 256 0 0 0 256 256"/><path fill="var(--flag-palette-bright-red, #d80027)" d="M512 255.5v.5H0a256 256 0 0 1 512-.5"/><path fill="#EEE" d="M154.9 128A78 78 0 0 1 216 51.9q-8.1-1.8-16.7-1.8A78 78 0 1 0 216 204a78 78 0 0 1-61.2-76.1M255 55.7l5.6 17h17.8L264 83.2l5.5 17L255 89.7l-14.4 10.5 5.5-17-14.5-10.5h18z"/><path fill="#EEE" d="m211.7 89 5.5 17H235l-14.5 10.6 5.5 17-14.4-10.5-14.5 10.5 5.5-17-14.4-10.6H206zm86.7 0 5.5 17h18l-14.5 10.6 5.5 17-14.5-10.5-14.5 10.5 5.6-17L275 106h18zm-16.7 50.1 5.5 17h18l-14.5 10.5 5.5 17-14.5-10.5-14.4 10.6 5.5-17-14.5-10.6h17.9zm-53.3 0 5.5 17h17.9l-14.5 10.5 5.5 17-14.4-10.5-14.5 10.6 5.5-17L205 156h18z"/></g><path fill="#EEE" d="M437 75a256 256 0 0 1-180.9 437h-.2a255 255 0 0 1-172.7-67.2L192 336v-16l32-32h64v-64z"/><path fill="var(--flag-palette-blue, #0052b4)" d="M459.4 100.6A255 255 0 0 1 504 192H368zm0 310.8A255 255 0 0 0 504 320H368zm-48 48L320 368v136a255 255 0 0 0 91.4-44.6M192 504V368l-91.4 91.4A255 255 0 0 0 192 504"/><path fill="var(--flag-palette-bright-red, #d80027)" d="M510 288a258 258 0 0 0 0-64H288l-64 64v222q15.6 2 31.9 2h.2q16.3 0 31.9-2V288z"/><path fill="var(--flag-palette-bright-red, #d80027)" d="M452.3 420.3 352 320h-32l117 117q8.1-8 15.3-16.7m-360.6 32L192 352v-32L75 437q8 8.1 16.7 15.3"/></g><defs><clipPath id="a"><path fill="#fff" d="M0 0h512v512H0z"/></clipPath></defs></svg>