<svg xmlns="http://www.w3.org/2000/svg" width="512" height="512" fill="none"><g clip-path="url(#a)"><mask id="c" width="512" height="512" x="0" y="0" maskUnits="userSpaceOnUse" style="mask-type:alpha"><path fill="#F0F" d="M437 437h75V0H75v75l85 277z"/></mask><g clip-path="url(#b)" mask="url(#c)"><path fill="#338AF3" d="M437 75 224 224 75 437a256 256 0 0 0 437-178.2v-5.7A255 255 0 0 0 437 75"/><path fill="#6DA544" d="M437 75 75 437A256 256 0 0 1 437 75"/><path fill="#FFDA44" d="M372.2 27.8a257 257 0 0 1 112 112L139.8 484.2a257 257 0 0 1-112-112z"/><path fill="#333" d="M402.2 45.8q37.7 26.3 64 64L109.8 466.2a256 256 0 0 1-64-64z"/></g><path fill="#EEE" d="M437 437A256 256 0 0 1 0 256.1v-.2A255 255 0 0 1 67.2 83.2L176 192h16l32 32v64h64z"/><path fill="#0052B4" d="M411.4 459.4A255 255 0 0 1 320 504V368zm-310.8 0A255 255 0 0 0 192 504V368zm-48-48L144 320H8a255 255 0 0 0 44.6 91.4M8 192h136l-91.4-91.4A255 255 0 0 0 8 192"/><path fill="#D80027" d="M224 510a259 259 0 0 0 64 0V288l-64-64H2q-2 15.6-2 31.9v.2q0 16.3 2 31.9h222z"/><path fill="#D80027" d="M91.7 452.3 192 352v-32L75 437q8 8.1 16.7 15.3m-32-360.6L160 192h32L75 75q-8.1 8-15.3 16.7"/></g><defs><clipPath id="a"><path fill="#fff" d="M0 0h512v512H0z"/></clipPath><clipPath id="b"><path fill="#fff" d="M0 0h512v512H0z"/></clipPath></defs></svg>