<svg xmlns="http://www.w3.org/2000/svg" width="512" height="512" fill="none"><g clip-path="url(#a)"><g clip-path="url(#b)"><path fill="var(--flag-palette-blue, #0052b4)" d="M256 512a256 256 0 0 0 256-255.5v-.5l-256-32L0 256a256 256 0 0 0 256 256"/><path fill="var(--flag-palette-bright-red, #d80027)" d="M512 255.5v.5H0a256 256 0 0 1 512-.5"/><path fill="var(--flag-palette-green, #6da544)" fill-rule="evenodd" d="M512 255.3v1.4q0 16.6-2.2 32.7h-242L99 458.2C38.8 411.4 0 338.2 0 256S38.8 100.6 99 53.8l169 168.8h242q2 16 2.1 32.7" clip-rule="evenodd"/><path fill="#EEE" fill-rule="evenodd" d="M503.6 321.4H281L126 476.6a257 257 0 0 1-27-18.4L269.3 288H510a255 255 0 0 1-6.4 33.4M126 35.4l155 155.2h222.5q4.3 16.3 6.4 33.4H269.3L99 53.8q12.9-10 27-18.4" clip-rule="evenodd"/><path fill="#333" fill-rule="evenodd" d="M54 413.2C20 369.8 0 315.2 0 256c0-59.3 20.1-113.8 54-157.2L211.2 256z" clip-rule="evenodd"/><path fill="var(--flag-palette-yellow, #ffda44)" fill-rule="evenodd" d="M35.6 125.7q8.4-14.1 18.4-27L211.2 256 54 413.2a257 257 0 0 1-18.4-26.9L166 256z" clip-rule="evenodd"/></g><path fill="#EEE" d="M437 75a256 256 0 0 1-180.9 437h-.2a255 255 0 0 1-172.7-67.2L192 336v-16l32-32h64v-64z"/><path fill="var(--flag-palette-blue, #0052b4)" d="M459.4 100.6A255 255 0 0 1 504 192H368zm0 310.8A255 255 0 0 0 504 320H368zm-48 48L320 368v136a255 255 0 0 0 91.4-44.6M192 504V368l-91.4 91.4A255 255 0 0 0 192 504"/><path fill="var(--flag-palette-bright-red, #d80027)" d="M510 288a258 258 0 0 0 0-64H288l-64 64v222q15.6 2 31.9 2h.2q16.3 0 31.9-2V288z"/><path fill="var(--flag-palette-bright-red, #d80027)" d="M452.3 420.3 352 320h-32l117 117q8.1-8 15.3-16.7m-360.6 32L192 352v-32L75 437q8 8.1 16.7 15.3"/></g><defs><clipPath id="a"><path fill="#fff" d="M0 0h512v512H0z"/></clipPath><clipPath id="b"><path fill="#fff" d="M0 0h512v512H0z"/></clipPath></defs></svg>