<svg xmlns="http://www.w3.org/2000/svg" width="512" height="512" fill="none"><g clip-path="url(#a)"><circle cx="256" cy="256" r="256" fill="#EEE"/><path fill="#333" fill-rule="evenodd" d="M411.7 52.8q-6.1 47.5-22.3 91.2l89.7 37.2-12.2 29.5-89.8-37.2c-18.4 40-43 76.5-72.6 108.4l68.9 68.8-22.7 22.7-68.8-68.9a416 416 0 0 1-108.4 72.6l37.2 89.8-29.5 12.2-37.2-89.7a412 412 0 0 1-91.2 22.3q-11-14.3-20-30A383 383 0 0 0 381.7 32.8q15.8 9 30 19.9M184 118a28 28 0 0 0-28 28H72a28 28 0 0 0 28 28 28 28 0 0 0 28 28 28 28 0 0 0 28 28h56a28 28 0 0 0 28-28 28 28 0 0 0 28-28 28 28 0 0 0 28-28h-84a28 28 0 0 0-28-28" clip-rule="evenodd"/></g><defs><clipPath id="a"><path fill="#fff" d="M0 0h512v512H0z"/></clipPath></defs></svg>