<svg xmlns="http://www.w3.org/2000/svg" width="512" height="512" fill="none"><g clip-path="url(#a)"><mask id="b" width="512" height="512" x="0" y="0" maskUnits="userSpaceOnUse" style="mask-type:alpha"><path fill="#F0F" d="M437 75V0H0v437h75l277-85z"/></mask><g mask="url(#b)"><path fill="#D80027" d="M376 29.8A255 255 0 0 0 256 0c-43.4 0-84.2 10.8-120 29.8v452.4c35.8 19 76.6 29.8 120 29.8s84.2-10.8 120-29.8z"/><path fill="#D80027" d="M344 15.5a256.1 256.1 0 0 1 0 481z"/><path fill="#496E2D" d="M168 15.5v481a256.1 256.1 0 0 1 0-481"/><path fill="#FFDA44" d="M167 345a89 89 0 1 0 0-178 89 89 0 0 0 0 178"/><path fill="#D80027" d="M108.5 202.6v64.9a58.4 58.4 0 1 0 116.9 0v-65z"/><path fill="#EEE" d="M167 304.2a34.4 34.4 0 0 1-34.3-34.3v-45.3h68.6v45.1A34.4 34.4 0 0 1 167 304z"/><path fill="#0052B4" fill-rule="evenodd" d="M167 249.6c-3.7 0-6.8-3-6.8-6.7v-9h13.6v8.9c0 3.8-3.1 6.8-6.8 6.8m0 43.2a7 7 0 0 1-6.8-6.8v-8.9h13.6v8.9c0 3.7-3.1 6.7-6.8 6.7zm-6.8-28.4c0 3.8 3.1 6.8 6.8 6.8s6.8-3.1 6.8-6.8v-8.9h-13.6zm-13 6.8c-3.7 0-6.7-3-6.7-6.8v-8.9H154v8.9c0 3.7-3 6.8-6.8 6.8m32.8-6.8a6.7 6.7 0 1 0 13.5 0v-8.9H180z" clip-rule="evenodd"/></g><path fill="#6DA544" d="M75 437A256 256 0 1 0 437 75z"/><path fill="#FFDA44" fill-rule="evenodd" d="M345.7 166.3 467.5 256 256 411.8l-89.7-66z" clip-rule="evenodd"/><path fill="#EEE" fill-rule="evenodd" d="m193 319 126-126a89 89 0 0 1-126 126" clip-rule="evenodd"/><path fill="#0052B4" fill-rule="evenodd" d="M319 193a89 89 0 0 1 24.4 80 184 184 0 0 0-62.2-42.2zm-64 64-62 62a88.7 88.7 0 0 0 135.8-11.8A151 151 0 0 0 255 257" clip-rule="evenodd"/></g><defs><clipPath id="a"><path fill="#fff" d="M0 0h512v512H0z"/></clipPath></defs></svg>