<svg xmlns="http://www.w3.org/2000/svg" width="512" height="512" fill="none"><g clip-path="url(#a)"><circle cx="256" cy="256" r="256" fill="var(--flag-palette-purple, #4a1f63)"/><path fill="var(--flag-palette-yellow, #ffda44)" d="M0 245.6A256 256 0 0 1 256 0v256H0z"/><path fill="var(--flag-palette-purple, #4a1f63)" d="M152 72a80 80 0 1 0 0 160 80 80 0 0 0 0-160m-19.2 15.4a82 82 0 0 0-17 23.8l-13-5.4a64 64 0 0 1 30-18.4m38.4 0c11.6 3 22.3 10 30 18.4l-13 5.4a82 82 0 0 0-17-23.8m-13 3.8c5.3 5.4 12.3 13.1 18.4 23.1l-18.4 3zm-12.4 0v26.2l-18.4-3c6.1-10 13-17.8 18.4-23.2m63.1 23.9c6.2 9.2 9.3 20 10.8 30.7h-21.5a83 83 0 0 0-5.4-23.8zm-113.8 0 16.1 6.9q-4.3 11.4-5.4 23.8H84.3a74 74 0 0 1 10.8-30.7m86.1 10.7q3.5 9.5 4.6 20h-27.6v-16.1zm-58.4 0 23 3.9v16.1h-27.6q1.1-10.5 4.6-20m-38.5 32.4h21.5q1 12.4 5.4 23.8l-16.1 7a70 70 0 0 1-10.8-30.8m33.9 0h27.6v16.1l-23 3.9q-3.5-9.5-4.6-20m40 0h27.6q-1.1 10.5-4.6 20l-23-3.9zm40 0h21.5a70 70 0 0 1-10.8 30.7l-16.1-6.9q4.3-11.4 5.4-23.8m-52.4 28.4v26.2a105 105 0 0 1-18.4-23.1zm12.4 0 18.4 3c-6.1 10-13 18.6-18.4 23.2zm30 6.2c5.3 2.3 10 3.8 13 6.1a69 69 0 0 1-30 17.7 82 82 0 0 0 17-23.8m-72.4 0a82 82 0 0 0 17 23.8 63 63 0 0 1-30-17.7z"/></g><defs><clipPath id="a"><path fill="#fff" d="M0 0h512v512H0z"/></clipPath></defs></svg>